<?xml version="1.0" encoding="UTF-8"?>
<!DOCTYPE svg PUBLIC "-//W3C//DTD SVG 1.1//EN" "http://www.w3.org/Graphics/SVG/1.1/DTD/svg11.dtd">
<svg version="1.1" xmlns="http://www.w3.org/2000/svg" xmlns:xlink="http://www.w3.org/1999/xlink" x="0" y="0" width="226.772" height="226.772" viewBox="0, 0, 226.772, 226.772">
  <g id="Background">
    <rect x="0" y="0" width="226.772" height="226.772" fill="#FFFFFF"/>
  </g>
  <g id="Layer_1">
    <g>
      <path d="M128.416,100.35 C150.508,100.35 168.416,118.259 168.416,140.35 C168.416,162.441 150.508,180.35 128.416,180.35 C106.325,180.35 88.416,162.441 88.416,140.35 L65.616,140.35 C65.616,175.972 94.494,204.85 130.116,204.85 C165.739,204.85 194.616,175.972 194.616,140.35 C194.616,104.728 165.739,75.85 130.116,75.85 L128.416,100.35 z" fill="#000000"/>
      <path d="M128.416,100.35 C150.508,100.35 168.416,118.259 168.416,140.35 C168.416,162.441 150.508,180.35 128.416,180.35 C106.325,180.35 88.416,162.441 88.416,140.35 L65.616,140.35 C65.616,175.972 94.494,204.85 130.116,204.85 C165.739,204.85 194.616,175.972 194.616,140.35 C194.616,104.728 165.739,75.85 130.116,75.85 L128.416,100.35 z" fill-opacity="0" stroke="#000000" stroke-width="1"/>
    </g>
    <g>
      <path d="M49.016,139.35 L105.016,139.35 C111.644,139.35 117.016,143.82 117.016,149.334 L117.016,150.166 C117.016,155.68 111.644,160.15 105.016,160.15 L49.016,160.15 C42.389,160.15 37.016,155.68 37.016,150.166 L37.016,149.334 C37.016,143.82 42.389,139.35 49.016,139.35 z" fill="#000000"/>
      <path d="M49.016,139.35 L105.016,139.35 C111.644,139.35 117.016,143.82 117.016,149.334 L117.016,150.166 C117.016,155.68 111.644,160.15 105.016,160.15 L49.016,160.15 C42.389,160.15 37.016,155.68 37.016,150.166 L37.016,149.334 C37.016,143.82 42.389,139.35 49.016,139.35 z" fill-opacity="0" stroke="#000000" stroke-width="1"/>
    </g>
    <g>
      <path d="M90.537,92.629 L129.625,24.926 C134.251,16.913 144.946,14.427 153.512,19.373 L154.805,20.12 C163.372,25.065 166.566,35.57 161.94,43.583 L122.852,111.286 C118.226,119.298 107.531,121.784 98.964,116.838 L97.672,116.092 C89.105,111.146 85.911,100.641 90.537,92.629 z" fill="#000000"/>
      <path d="M90.537,92.629 L129.625,24.926 C134.251,16.913 144.946,14.427 153.512,19.373 L154.805,20.12 C163.372,25.065 166.566,35.57 161.94,43.583 L122.852,111.286 C118.226,119.298 107.531,121.784 98.964,116.838 L97.672,116.092 C89.105,111.146 85.911,100.641 90.537,92.629 z" fill-opacity="0" stroke="#000000" stroke-width="1"/>
    </g>
    <g>
      <g>
        <path d="M37.956,23.204 L32.975,28.998 C29.827,32.659 23.822,32.658 19.561,28.995 L19.561,28.995 C15.301,25.333 14.398,19.396 17.545,15.735 L22.526,9.94 C25.674,6.279 31.679,6.28 35.94,9.943 L35.94,9.943 C40.2,13.606 41.103,19.543 37.956,23.204 z" fill="#FFFFFF"/>
        <path d="M37.956,23.204 L32.975,28.998 C29.827,32.659 23.822,32.658 19.561,28.995 L19.561,28.995 C15.301,25.333 14.398,19.396 17.545,15.735 L22.526,9.94 C25.674,6.279 31.679,6.28 35.94,9.943 L35.94,9.943 C40.2,13.606 41.103,19.543 37.956,23.204 z" fill-opacity="0" stroke="#000000" stroke-width="1"/>
      </g>
      <g>
        <path d="M85.949,53.208 L69.707,72.102 L19.561,28.995 L35.804,10.101 L85.949,53.208 z" fill="#000000"/>
        <path d="M85.949,53.208 L69.707,72.102 L19.561,28.995 L35.804,10.101 L85.949,53.208 z" fill-opacity="0" stroke="#000000" stroke-width="1"/>
      </g>
      <path d="M85.949,53.208 L96.871,79.025 L69.707,72.102 z" fill-opacity="0" stroke="#000000" stroke-width="1"/>
      <g>
        <path d="M85.949,53.208 L75.993,52.157 L74.997,59.26 L70.622,59.891 L71.486,65.574 L65.961,64.941 L69.707,72.102 L96.871,79.025 L85.949,53.208 z" fill="#FFFFFF"/>
        <path d="M85.949,53.208 L75.993,52.157 L74.997,59.26 L70.622,59.891 L71.486,65.574 L65.961,64.941 L69.707,72.102 L96.871,79.025 L85.949,53.208 z" fill-opacity="0" stroke="#000000" stroke-width="1"/>
      </g>
      <g>
        <path d="M96.871,79.025 L92.724,68.736 L86.531,76.312 L96.871,79.025 z" fill="#000000"/>
        <path d="M96.871,79.025 L92.724,68.736 L86.531,76.312 L96.871,79.025 z" fill-opacity="0" stroke="#000000" stroke-width="1"/>
      </g>
      <path d="M73.69,67.469" fill-opacity="0" stroke="#000000" stroke-width="1"/>
    </g>
    <path d="M63.116,212.85 C61,203.25 89.716,189.25 89.716,189.25 L173.116,186.65 C173.116,186.65 207.283,204.85 192.516,212.05 C177.75,219.25 65.233,222.45 63.116,212.85 z" fill="#000000"/>
    <path d="M89.716,189.25" fill="#000000"/>
  </g>
</svg>
